:SAMPLES-PER-SECOND 30
:FULLY-SPECIFIED
:DEGREES
1
root  81.8624 40.42 -6.49012 174.825 -86.9339 -174.065
RightUpLeg  1.48104 -7.42992 -4.50639
RightLeg  2.26069 -3.74117 3.58863
RightFoot  -2.55867 0.0972927 -1.58605
RightToes  1.74622e-010 0 -3.6325e-017
Spine  -0.64403 -0.100708 0.639788
Spine1  4.10327 -0.0664408 -0.295647
HEad  -5.30552 4.98728 0.163541
LeftShoulder1  0.59983 0.406271 -12.0511
LeftArm  -14.7426 7.95078 -1.19314
LeftForeArm  13.0945 -1.95562 -2.85753
LeftHand  -0.244104 0.0205437 5.32207
RightShoulder  0.453219 -0.612336 8.26103
RightArm  -21.0636 2.47222 0.963164
RightForeArm  3.56415 0.223919 3.00267
RightHand  -1.24674 4.94876 -14.222
LeftUpLeg  1.89995 4.92694 2.87293
LeftLeg  1.07898 12.5587 -3.78649
LeftFoot  -3.55883 0.0209655 0.0962142
LeftToes  -6.36679e-011 4.33698e-011 -8.22343e-012
2
root  81.8585 40.42 -6.48595 175.233 -86.9339 -174.469
RightUpLeg  1.47803 -7.45945 -4.54818
RightLeg  2.27641 -3.69266 3.60022
RightFoot  -2.55898 0.101812 -1.65632
RightToes  1.74622e-010 0 -3.6325e-017
Spine  -0.717932 -0.101514 0.591466
Spine1  4.21734 -0.0774908 -0.241868
HEad  -5.35272 4.93029 0.160681
LeftShoulder1  0.588462 0.468099 -12.0672
LeftArm  -14.7726 7.88276 -1.27495
LeftForeArm  13.18 -1.93707 -2.85387
LeftHand  -0.244104 0.0205437 5.32207
RightShoulder  0.453177 -0.608759 8.18301
RightArm  -21.0374 2.44774 1.01662
RightForeArm  3.36989 0.244521 3.02349
RightHand  -1.23957 4.86722 -14.25
LeftUpLeg  1.89994 4.91072 2.845
LeftLeg  1.07835 12.5489 -3.79063
LeftFoot  -3.54175 0.0209218 0.0968936
LeftToes  -6.36679e-011 4.33698e-011 -8.22343e-012
3
root  81.8523 40.42 -6.48001 175.326 -86.9339 -174.554
RightUpLeg  1.47307 -7.47739 -4.56894
RightLeg  2.29007 -3.65907 3.60792
RightFoot  -2.55892 0.105822 -1.71869
RightToes  1.74622e-010 0 -3.6325e-017
Spine  -0.851636 -0.117282 0.582874
Spine1  4.43523 -0.0947509 -0.235542
HEad  -5.46729 4.82374 0.199215
LeftShoulder1  0.568806 0.567622 -12.0444
LeftArm  -14.8433 7.81093 -1.40514
LeftForeArm  13.3169 -1.89 -2.8295
LeftHand  -0.244104 0.0205437 5.32207
RightShoulder  0.454862 -0.591327 8.1109
RightArm  -21.0185 2.44262 1.10668
RightForeArm  2.98277 0.254052 3.05761
RightHand  -1.22425 4.72863 -14.263
LeftUpLeg  1.90012 4.91175 2.83477
LeftLeg  1.07945 12.5455 -3.80238
LeftFoot  -3.54497 0.0182697 0.138108
LeftToes  -6.36679e-011 4.33698e-011 -8.22343e-012
4
root  81.8463 40.42 -6.47479 174.938 -86.9343 -174.171
RightUpLeg  1.50025 -7.47545 -4.55564
RightLeg  2.26185 -3.67799 3.6151
RightFoot  -2.56143 0.106035 -1.722
RightToes  1.74622e-010 0 -3.6325e-017
Spine  -0.924237 -0.142059 0.645047
Spine1  4.57793 -0.103087 -0.325876
HEad  -5.51719 4.75134 0.230272
LeftShoulder1  0.567035 0.57608 -12.0385
LeftArm  -14.865 7.82529 -1.40809
LeftForeArm  13.3397 -1.83941 -2.81023
LeftHand  -0.244104 0.0205437 5.32207
RightShoulder  0.463419 -0.536797 8.13427
RightArm  -21.0163 2.42256 1.12663
RightForeArm  2.70787 0.263063 3.07775
RightHand  -1.20708 4.61182 -14.2258
LeftUpLeg  1.90411 4.93291 2.85255
LeftLeg  1.0996 12.5397 -3.80602
LeftFoot  -3.57056 0.0162056 0.170186
LeftToes  -6.36679e-011 4.33698e-011 -8.22343e-012
5
root  81.8402 40.4199 -6.46863 174.638 -86.9326 -173.889
RightUpLeg  1.5506 -7.47687 -4.55454
RightLeg  2.21937 -3.68608 3.62516
RightFoot  -2.57746 0.102782 -1.67142
RightToes  1.74622e-010 0 -3.6325e-017
Spine  -0.89754 -0.158582 0.73302
Spine1  4.57727 -0.0954581 -0.456072
HEad  -5.41371 4.80036 0.193291
LeftShoulder1  0.579047 0.521254 -12.0949
LeftArm  -14.8174 7.87996 -1.29039
LeftForeArm  13.2341 -1.8298 -2.8189
LeftHand  -0.244104 0.0205437 5.32207
RightShoulder  0.473958 -0.479359 8.19295
RightArm  -21.0725 2.38312 1.09717
RightForeArm  2.70599 0.255743 3.05389
RightHand  -1.20165 4.57336 -14.2159
LeftUpLeg  1.91841 4.94074 2.85957
LeftLeg  1.13146 12.5422 -3.79457
LeftFoot  -3.59077 0.0177053 0.14688
LeftToes  -6.36679e-011 4.33698e-011 -8.22343e-012
6
root  81.8326 40.4196 -6.46035 174.72 -86.9207 -173.977
RightUpLeg  1.56085 -7.488 -4.58093
RightLeg  2.23387 -3.64272 3.62842
RightFoot  -2.60082 0.0989587 -1.61196
RightToes  1.74622e-010 0 -3.6325e-017
Spine  -0.890851 -0.15794 0.825619
Spine1  4.5883 -0.066265 -0.600249
HEad  -5.26807 4.93786 0.149768
LeftShoulder1  0.57953 0.518468 -12.0928
LeftArm  -14.8166 7.88807 -1.26665
LeftForeArm  13.1841 -1.85788 -2.82155
LeftHand  -0.244104 0.0205437 5.32207
RightShoulder  0.471621 -0.498597 8.2179
RightArm  -21.2066 2.39282 1.11866
RightForeArm  2.85315 0.189129 2.99168
RightHand  -1.22004 4.6665 -14.2991
LeftUpLeg  1.92717 4.92238 2.83623
LeftLeg  1.15322 12.56 -3.77648
LeftFoot  -3.6037 0.0194052 0.120463
LeftToes  -6.36679e-011 4.33698e-011 -8.22343e-012
7
root  81.8224 40.4194 -6.45253 174.871 -86.9101 -174.109
RightUpLeg  1.52156 -7.5004 -4.60613
RightLeg  2.30504 -3.59759 3.62644
RightFoot  -2.62429 0.0984759 -1.60445
RightToes  1.74622e-010 0 -3.6325e-017
Spine  -0.881706 -0.156639 0.870627
Spine1  4.5746 -0.0501459 -0.673299
HEad  -5.16145 5.08183 0.132488
LeftShoulder1  0.565981 0.582516 -12.0407
LeftArm  -14.8746 7.88563 -1.33733
LeftForeArm  13.2678 -1.91084 -2.80357
LeftHand  -0.244104 0.0205437 5.32207
RightShoulder  0.460168 -0.564441 8.17453
RightArm  -21.3119 2.4443 1.19353
RightForeArm  3.02995 0.0889942 2.93806
RightHand  -1.25426 4.86607 -14.4152
LeftUpLeg  1.91387 4.9042 2.80945
LeftLeg  1.17417 12.583 -3.76388
LeftFoot  -3.62871 0.0179286 0.14341
LeftToes  -6.36679e-011 4.33698e-011 -8.22343e-012
